<?xml version="1.0" encoding="UTF-8"?>
<svg id="Capa_2" xmlns="http://www.w3.org/2000/svg" viewBox="0 0 172.5 189.6">
  <defs>
    <style>
      .cls-1 {
        fill: #f5c1bc;
      }

      .cls-2 {
        fill: #ecebb1;
      }

      .cls-3 {
        fill: #3e6048;
      }
    </style>
  </defs>
  <g id="Capa_5">
    <g>
      <g>
        <path class="cls-3" d="M56.27,49.93c-.92-7.49.75-14.03,2.42-18.59-.29-.89-.62-1.76-.99-2.6-3.08-7-8.51-11.31-12.75-13.76-.1.63-.17,1.26-.2,1.9-.15,2.56.18,5.1,1,7.57l3.28,9.96-7.85-6.95c-1.41-1.25-3.02-2.21-4.78-2.87-.98-.36-1.99-.63-3.01-.78-.91,3.97-1.27,9.21.75,14.59,1.08,2.86,2.82,5.66,4.95,8.14,5.09-.1,11.15.54,17.18,3.39Z"/>
        <path class="cls-3" d="M115.42,49.9c6.33-2.95,12.57-3.54,17.32-3.47,2.09-2.45,3.8-5.21,4.86-8.03,2.03-5.38,1.67-10.63.75-14.59-1.03.16-2.03.42-3.01.78-1.76.66-3.37,1.62-4.78,2.87l-7.85,6.94,3.28-9.96c.81-2.47,1.15-5.01,1-7.57-.04-.64-.11-1.27-.2-1.9-4.24,2.45-9.67,6.76-12.75,13.76-.4.9-.75,1.83-1.06,2.78,1.83,4.97,3.35,11.3,2.44,18.38Z"/>
        <path class="cls-3" d="M143.45,125.56c2.32.84,4.77,1.33,7.33,1.46.43-.99,1.06-1.81,1.87-2.43,2.12-1.62,4.58-1.19,6.55-.85.52.09,1.05.18,1.57.24,1.66.2,3.4.11,5.2-.27-.19-3.15-1.08-7.7-4.2-12.05-5.3-7.38-13.4-8.97-15.76-9.28-.54-.07-1.09-.12-1.64-.16-3.07,1.71-6.62,3.15-10.64,3.91,6.34,6.8,8.64,14.74,9.72,19.42Z"/>
        <path class="cls-3" d="M27.23,102.23c-.52.04-1.04.09-1.55.16-2.36.31-10.47,1.9-15.76,9.28-3.12,4.35-4.02,8.9-4.2,12.05,1.8.37,3.54.46,5.2.27.53-.06,1.06-.15,1.57-.24.87-.15,1.84-.32,2.82-.32,1.25,0,2.54.27,3.73,1.17.82.62,1.44,1.43,1.87,2.43,2.63-.13,5.15-.65,7.52-1.53,1.28-5.59,3.69-13.05,9.59-19.3-4.14-.8-7.74-2.28-10.79-3.96Z"/>
        <path class="cls-3" d="M85.89,140.94c-4.27,7.69-10.62,12.27-14.78,14.83-.09,3.36.29,6.78,1.3,10.08,2.58,8.42,8.75,13.92,13.06,16.89,4.56-3.55,9.86-9.19,12.12-17.28,1.01-3.59,1.32-7.37,1.1-11.08-4.41-2.94-9.37-7.18-12.81-13.45Z"/>
      </g>
      <g>
        <path class="cls-1" d="M82.2,130.38c-.19-.99-.35-2.01-.47-3.05-.12-1-.2-2.01-.25-3.03-.12-2.36-.05-4.78.25-7.17-8.44-1.32-15.59-6.58-19.49-13.84-3.99,1.82-8.38,2.9-12.7,3.34-.97.1-1.93.16-2.89.19-.28,0-.56.02-.84.02-.42.31-.83.63-1.22.95-.17.14-.34.29-.51.44-4.58,4-7.14,8.9-8.69,13.44-.49,1.44-.89,2.85-1.21,4.18-.32,1.31-.57,2.54-.79,3.66-.07.35-.13.69-.2,1.01-2.15,11.14-.06,20.85,2.34,27.44,6.89.88,18.67.96,30.17-5.58.11-.06.23-.13.34-.19.77-.45,1.71-1,2.75-1.65,1.03-.65,2.15-1.42,3.31-2.31,3.71-2.84,7.79-6.99,10.29-13.05.2-.48.39-.99.58-1.52-.29-1.05-.55-2.15-.76-3.28Z"/>
        <path class="cls-1" d="M59.37,94.87c-.22-1.38-.34-2.8-.34-4.25,0-7.2,2.85-13.74,7.48-18.56-3.33-3.63-5.94-8.03-7.73-12.53-.27-.67-.51-1.34-.74-2.01-.22-.16-.44-.31-.66-.46-.21-.14-.41-.28-.62-.41-.97-.61-1.94-1.14-2.92-1.6-2.48-1.18-4.99-1.91-7.43-2.34-1.93-.34-3.82-.49-5.62-.52-1.43-.02-2.8.03-4.09.12-1.89.13-3.61.35-5.09.53-11.26,1.4-19.84,6.39-25.37,10.7,1.31,6.89,4.92,18.28,14.92,27.23,1.64,1.47,4.13,3.7,7.44,5.71,3.62,2.2,8.22,4.15,13.79,4.58.52.04,1.07.07,1.63.08.61.02,1.23.01,1.88,0,1.45-.04,2.99-.17,4.55-.4,3.2-.47,6.54-1.35,9.61-2.76-.04-.13-.08-.26-.11-.39-.24-.9-.44-1.81-.59-2.74Z"/>
        <path class="cls-1" d="M108.81,37.04c-.52-1.9-1.16-3.66-1.81-5.26-.68-1.65-1.37-3.13-1.97-4.41-4.81-10.28-12.21-16.9-18.02-20.82-6.15,3.37-15.87,10.33-21.29,22.6-.3.69-.66,1.5-1.04,2.42-.61,1.48-1.25,3.25-1.79,5.24-1.06,3.91-1.7,8.7-.76,13.97.1.57.22,1.15.36,1.74.12.51.27,1.04.43,1.57.1.33.2.67.32,1.01.53,1.6,1.22,3.29,2.05,4.98,1.43,2.9,3.3,5.81,5.6,8.29.11-.08.23-.14.34-.22.78-.51,1.59-.98,2.42-1.41,3.67-1.89,7.82-2.96,12.22-2.96s8.15.96,11.68,2.68c2.65-4.68,6.43-8.83,10.57-12.05.21-.16.41-.32.62-.48.16-.5.3-1,.43-1.48.15-.61.28-1.21.39-1.8.92-4.98.35-9.6-.76-13.62Z"/>
        <path class="cls-1" d="M138.1,52.47c-.84-.09-1.84-.19-2.97-.26-.97-.07-2.04-.11-3.19-.11-.29,0-.59,0-.89,0-1.74.04-3.64.19-5.62.55-2.46.44-5.05,1.19-7.66,2.41-.97.45-1.93.96-2.9,1.56-.21.13-.42.26-.63.4-.24.16-.49.32-.73.49-.58.4-1.16.83-1.75,1.29-1.07.84-2.15,1.78-3.21,2.81-2.32,2.26-4.51,4.94-6.16,7.89.11.08.21.16.32.25.73.59,1.43,1.21,2.09,1.87,4.88,4.86,7.9,11.58,7.9,19,0,1.24-.09,2.45-.25,3.65,5.14,1.05,10.12,3.27,14.39,6.1.33.22.66.45.98.67.53,0,1.04-.02,1.54-.05,5.37-.35,9.88-2.21,13.6-4.5,3.79-2.34,6.77-5.12,8.99-7.19,8.29-7.75,12.3-16.83,14.24-23.57-5.11-4.81-14.73-11.9-28.07-13.26Z"/>
        <path class="cls-1" d="M138.52,129.61c-.07-.37-.14-.73-.22-1.1-.16-.73-.34-1.59-.58-2.54-.3-1.24-.69-2.65-1.21-4.16-1.49-4.32-4.07-9.43-8.87-13.69-.16-.14-.31-.28-.47-.42-.4-.34-.83-.68-1.28-1.02-.2-.15-.4-.3-.6-.46-.74-.54-1.54-1.08-2.38-1.6-.78-.48-1.59-.95-2.44-1.39-2.86-1.51-6.09-2.75-9.4-3.41-.05.13-.1.25-.15.37-.34.88-.72,1.73-1.14,2.56-3.75,7.36-10.79,12.77-19.18,14.27-.93.17-1.88.29-2.84.35-.12,0-.24.02-.36.03-.29,2.08-.37,4.19-.29,6.26.04,1.02.13,2.03.24,3.02.03.23.06.47.09.7.13.93.29,1.85.48,2.73.27,1.28.61,2.5.98,3.64.17.5.34.98.52,1.45,1.88,4.73,4.83,8.31,7.96,11.08,1.16,1.03,2.35,1.95,3.52,2.77,1.09.76,2.17,1.45,3.19,2.07,1.24.74,2.4,1.39,3.43,1.95,9.94,5.48,19.81,6.49,26.81,6.26,2.91-6.17,6.55-17.05,4.16-29.7Z"/>
      </g>
      <path class="cls-2" d="M100.6,75.46c-.17-.16-.33-.33-.51-.48-.54-.49-1.11-.95-1.7-1.39-.23-.17-.47-.34-.71-.51-.62-.42-1.26-.8-1.92-1.15-.19-.1-.39-.2-.58-.3-2.81-1.39-5.98-2.17-9.32-2.17-3.56,0-6.92.89-9.87,2.45-.2.11-.41.22-.61.34-.64.36-1.25.76-1.84,1.19-.24.17-.47.34-.7.52-.59.46-1.16.96-1.7,1.48-.15.15-.31.3-.45.45-3.7,3.81-5.99,9.01-5.99,14.73,0,1.23.11,2.44.31,3.61.04.23.08.46.13.69.15.72.34,1.42.56,2.11.09.28.18.56.28.83.26.71.55,1.39.88,2.06.1.19.2.39.3.58,3.11,5.86,8.88,10.09,15.69,11.06.23.03.46.06.69.09.72.08,1.44.12,2.18.13.04,0,.09,0,.13,0,.25,0,.5-.01.74-.02.76-.03,1.5-.09,2.23-.19.22-.03.43-.07.64-.1,6.76-1.17,12.42-5.55,15.37-11.51.1-.21.2-.42.29-.63.3-.66.57-1.34.8-2.04.09-.28.18-.56.26-.84.21-.71.37-1.44.5-2.19.04-.21.07-.43.1-.64.14-.98.22-1.98.22-3,0-5.94-2.46-11.31-6.42-15.16Z"/>
      <path d="M151.04,97.68c1.9-1.54,3.5-3.03,4.78-4.23,9.95-9.31,14.35-20.3,16.28-27.88l.4-1.56-1.14-1.14c-5.17-5.19-16.12-14.07-31.88-15.94,1.4-2.08,2.57-4.27,3.42-6.52,2.99-7.94,1.81-15.5.28-20.44l-.62-2.02-2.12.02c-2.43.02-4.81.47-7.09,1.31-.24.09-.48.18-.71.28.06-1,.06-2,0-3.01-.13-2.25-.56-4.48-1.27-6.63l-.99-2.99-2.87,1.3c-4.63,2.1-12.78,6.91-17.64,16.13-5.79-11.98-14.68-19.38-21.18-23.49l-1.36-.86-1.44.73c-6.24,3.16-17.32,10.3-24.09,23.49-4.87-9.12-12.96-13.9-17.57-15.99l-2.87-1.3-.99,2.99c-.71,2.15-1.14,4.38-1.27,6.63-.06,1.01-.06,2.01,0,3.01-.24-.1-.47-.19-.71-.28-2.27-.85-4.66-1.29-7.09-1.31l-2.12-.02-.62,2.02c-1.52,4.94-2.71,12.5.28,20.44.87,2.29,2.07,4.53,3.51,6.65-.49.06-.96.12-1.41.17-13.52,1.68-23.54,7.99-29.56,12.98l-1.24,1.03.25,1.59c1.15,7.36,4.89,21.32,17.01,32.18.81.72,1.86,1.67,3.15,2.7-4.49,1.32-10.62,4.24-15.23,10.65C.43,115.16-.1,122.33.01,125.99l.06,2.01,1.92.61c3.29,1.04,6.51,1.38,9.58,1.02.68-.08,1.31-.19,1.87-.29.75-.13,1.87-.32,2.15-.23,0,0,.22.22.31,1.08l.26,2.47,2.49.06c.29,0,.57.01.86.01,2.65,0,5.23-.31,7.7-.93-1.83,12.37.89,22.94,3.61,29.78l.59,1.5,1.59.26c2.4.39,5.55.73,9.2.73,6.64,0,14.92-1.13,23.29-5.17.15,2.89.62,5.8,1.49,8.63,3.47,11.31,12.2,18.07,17.1,21.09l1.6.99,1.53-1.09c5.58-3.96,12.87-10.9,15.84-21.52.85-3.03,1.28-6.12,1.37-9.18.12.07.25.14.36.2,10.1,5.58,20.12,6.99,27.69,6.99,1.37,0,2.66-.05,3.86-.12l1.61-.1.73-1.43c3.07-5.99,7.6-17.6,5.91-31.53,2.44.6,4.97.91,7.58.91.28,0,.57,0,.85-.01l2.49-.06.26-2.47c.09-.83.3-1.07.29-1.07.3-.11,1.43.08,2.18.21.56.1,1.2.21,1.87.29,3.07.36,6.3.02,9.58-1.02l1.92-.61.06-2.01c.12-3.66-.41-10.83-5.3-17.63-4.64-6.47-10.84-9.38-15.34-10.69ZM166.18,65.73c-1.94,6.74-5.95,15.82-14.24,23.57-2.22,2.08-5.19,4.86-8.99,7.19-3.72,2.29-8.23,4.15-13.6,4.5-.5.03-1.01.05-1.54.05-.32-.23-.65-.45-.98-.67-4.27-2.83-9.26-5.06-14.39-6.1.16-1.19.25-2.41.25-3.65,0-7.41-3.02-14.13-7.9-19-.66-.66-1.36-1.28-2.09-1.87-.1-.08-.21-.17-.32-.25,1.66-2.95,3.84-5.63,6.16-7.89,1.05-1.03,2.14-1.97,3.21-2.81.59-.46,1.18-.89,1.75-1.29.25-.17.49-.33.73-.49.21-.14.42-.27.63-.4.96-.59,1.93-1.1,2.9-1.56,2.61-1.22,5.2-1.97,7.66-2.41,1.98-.35,3.88-.51,5.62-.55.3,0,.6,0,.89,0,1.15,0,2.22.05,3.19.11,1.13.08,2.14.18,2.97.26,13.35,1.37,22.97,8.46,28.07,13.26ZM107.02,90.62c0,1.02-.08,2.02-.22,3-.03.21-.07.43-.1.64-.13.74-.3,1.47-.5,2.19-.08.28-.17.56-.26.84-.23.7-.5,1.38-.8,2.04-.1.21-.19.42-.29.63-2.94,5.96-8.61,10.34-15.37,11.51-.21.04-.43.07-.64.1-.73.1-1.48.17-2.23.19-.25,0-.49.02-.74.02-.04,0-.09,0-.13,0-.74,0-1.46-.05-2.18-.13-.23-.03-.46-.06-.69-.09-6.81-.97-12.59-5.2-15.69-11.06-.1-.19-.2-.38-.3-.58-.33-.67-.62-1.35-.88-2.06-.1-.27-.19-.55-.28-.83-.22-.69-.41-1.39-.56-2.11-.05-.23-.09-.46-.13-.69-.2-1.17-.31-2.38-.31-3.61,0-5.72,2.29-10.92,5.99-14.73.15-.15.3-.3.45-.45.54-.52,1.11-1.02,1.7-1.48.23-.18.46-.35.7-.52.59-.43,1.21-.82,1.84-1.19.2-.11.4-.23.61-.34,2.95-1.56,6.31-2.45,9.87-2.45,3.34,0,6.51.78,9.32,2.17.2.1.39.2.58.3.66.35,1.3.73,1.92,1.15.24.16.48.33.71.51.59.43,1.16.9,1.7,1.39.17.16.34.32.51.48,3.96,3.85,6.42,9.22,6.42,15.16ZM114.03,28.74c3.08-7,8.51-11.31,12.75-13.76.1.63.17,1.26.2,1.9.15,2.56-.18,5.1-1,7.57l-3.28,9.96,7.85-6.94c1.41-1.25,3.02-2.21,4.78-2.87.98-.36,1.99-.63,3.01-.78.91,3.97,1.28,9.21-.75,14.59-1.06,2.82-2.77,5.58-4.86,8.03-4.74-.07-10.99.52-17.32,3.47.91-7.08-.61-13.41-2.44-18.38.31-.95.66-1.88,1.06-2.78ZM62.89,36.81c.54-1.99,1.19-3.76,1.79-5.24.38-.92.74-1.73,1.04-2.42,5.43-12.27,15.14-19.23,21.29-22.6,5.81,3.92,13.2,10.55,18.02,20.82.6,1.28,1.29,2.76,1.97,4.41.65,1.6,1.29,3.36,1.81,5.26,1.1,4.02,1.68,8.64.76,13.62-.11.6-.24,1.2-.39,1.8-.12.48-.27.98-.43,1.48-.21.16-.42.32-.62.48-4.14,3.22-7.92,7.37-10.57,12.05-3.53-1.72-7.5-2.68-11.68-2.68-4.4,0-8.55,1.07-12.22,2.96-.83.43-1.64.9-2.42,1.41-.11.07-.23.14-.34.22-2.29-2.48-4.16-5.39-5.6-8.29-.83-1.69-1.52-3.38-2.05-4.98-.11-.34-.22-.68-.32-1.01-.16-.54-.3-1.06-.43-1.57-.14-.59-.26-1.17-.36-1.74-.94-5.27-.3-10.06.76-13.97ZM33.38,23.8c1.03.16,2.03.42,3.01.78,1.76.66,3.37,1.62,4.78,2.87l7.85,6.95-3.28-9.96c-.81-2.47-1.15-5.01-1-7.57.04-.64.11-1.27.2-1.9,4.24,2.45,9.67,6.76,12.75,13.76.37.84.7,1.71.99,2.6-1.67,4.56-3.34,11.1-2.42,18.59-6.03-2.85-12.1-3.49-17.18-3.39-2.13-2.48-3.88-5.28-4.95-8.14-2.03-5.38-1.67-10.63-.75-14.59ZM6.26,63.55c5.53-4.31,14.11-9.3,25.37-10.7,1.48-.18,3.2-.4,5.09-.53,1.29-.09,2.66-.14,4.09-.12,1.8.03,3.69.18,5.62.52,2.44.43,4.94,1.16,7.43,2.34.98.46,1.96.99,2.92,1.6.2.13.41.27.62.41.22.15.44.3.66.46.23.67.48,1.34.74,2.01,1.79,4.5,4.4,8.9,7.73,12.53-4.63,4.82-7.48,11.36-7.48,18.56,0,1.45.12,2.86.34,4.25.15.93.35,1.84.59,2.74.04.13.07.26.11.39-3.07,1.41-6.41,2.29-9.61,2.76-1.57.23-3.1.36-4.55.4-.64.02-1.27.02-1.88,0-.56-.01-1.1-.04-1.63-.08-5.56-.43-10.17-2.38-13.79-4.58-3.31-2.02-5.8-4.24-7.44-5.71-9.99-8.95-13.61-20.34-14.92-27.23ZM28.43,125.5c-2.37.89-4.89,1.4-7.52,1.53-.43-1-1.06-1.81-1.87-2.43-1.19-.9-2.48-1.17-3.73-1.17-.99,0-1.95.17-2.82.32-.52.09-1.05.18-1.57.24-1.66.2-3.4.1-5.2-.27.19-3.15,1.08-7.7,4.2-12.05,5.3-7.38,13.4-8.97,15.76-9.28.51-.07,1.03-.12,1.55-.16,3.04,1.67,6.65,3.15,10.79,3.96-5.89,6.26-8.31,13.71-9.59,19.3ZM35.52,157.96c-2.39-6.59-4.48-16.29-2.34-27.44.06-.33.13-.67.2-1.01.22-1.12.47-2.36.79-3.66.32-1.33.72-2.74,1.21-4.18,1.55-4.54,4.1-9.44,8.69-13.44.17-.15.34-.3.51-.44.38-.32.79-.63,1.22-.95.28,0,.56-.01.84-.02.96-.03,1.92-.1,2.89-.19,4.32-.44,8.71-1.52,12.7-3.34,3.91,7.26,11.05,12.52,19.49,13.84-.3,2.39-.37,4.81-.25,7.17.05,1.02.13,2.04.25,3.03.12,1.04.28,2.06.47,3.05.22,1.13.47,2.23.76,3.28-.19.53-.38,1.04-.58,1.52-2.5,6.06-6.58,10.21-10.29,13.05-1.16.89-2.29,1.66-3.31,2.31-1.04.66-1.97,1.2-2.75,1.65-.11.07-.23.13-.34.19-11.5,6.54-23.28,6.46-30.17,5.58ZM97.6,165.47c-2.26,8.08-7.56,13.73-12.12,17.28-4.31-2.97-10.48-8.47-13.06-16.89-1.01-3.3-1.39-6.72-1.3-10.08,4.16-2.57,10.52-7.14,14.78-14.83,3.43,6.27,8.4,10.51,12.81,13.45.22,3.71-.09,7.48-1.1,11.08ZM134.35,159.31c-7,.24-16.88-.77-26.81-6.26-1.03-.57-2.19-1.21-3.43-1.95-1.03-.61-2.1-1.3-3.19-2.07-1.17-.82-2.36-1.74-3.52-2.77-3.14-2.77-6.08-6.35-7.96-11.08-.18-.46-.36-.95-.52-1.45-.38-1.13-.71-2.35-.98-3.64-.19-.88-.35-1.8-.48-2.73-.03-.23-.06-.46-.09-.7-.12-.99-.2-2-.24-3.02-.08-2.07,0-4.18.29-6.26.12,0,.24-.02.36-.03.96-.07,1.91-.19,2.84-.35,8.38-1.5,15.43-6.91,19.18-14.27.42-.83.8-1.68,1.14-2.56.05-.13.1-.25.15-.37,3.31.66,6.54,1.91,9.4,3.41.85.45,1.66.91,2.44,1.39.84.52,1.64,1.06,2.38,1.6.21.15.41.3.6.46.45.34.88.68,1.28,1.02.16.14.32.28.47.42,4.79,4.26,7.37,9.37,8.87,13.69.52,1.5.91,2.91,1.21,4.16.23.95.42,1.81.58,2.54.08.37.15.73.22,1.1,2.39,12.65-1.25,23.53-4.16,29.7ZM160.78,123.99c-.53-.06-1.06-.15-1.57-.24-1.97-.34-4.43-.76-6.55.85-.82.62-1.44,1.43-1.87,2.43-2.56-.13-5.01-.62-7.33-1.46-1.08-4.68-3.39-12.62-9.72-19.42,4.02-.76,7.57-2.2,10.64-3.91.56.04,1.11.09,1.64.16,2.36.31,10.47,1.9,15.76,9.28,3.12,4.35,4.02,8.9,4.2,12.05-1.8.37-3.54.46-5.2.27Z"/>
    </g>
  </g>
</svg>